<svg xmlns="http://www.w3.org/2000/svg" width="256" height="256" viewBox="0 0 256 256" fill="none">
  <defs>
    <linearGradient id="g" x1="0" y1="0" x2="1" y2="1">
      <stop offset="0%" stop-color="#7aa2f7"/>
      <stop offset="100%" stop-color="#7dcfff"/>
    </linearGradient>
  </defs>
  <circle cx="128" cy="128" r="110" fill="#0b0e14" stroke="#4b84ff" stroke-width="10"/>
  <g transform="translate(128 128)">
    <g>
      <path d="M0-96 A96 96 0 0 1 83.14-48 L0 0 Z" fill="url(#g)"/>
      <path d="M83.14-48 A96 96 0 0 1 83.14 48 L0 0 Z" fill="#3ccf91"/>
      <path d="M83.14 48 A96 96 0 0 1 0 96 L0 0 Z" fill="#ffd166"/>
      <path d="M0 96 A96 96 0 0 1 -83.14 48 L0 0 Z" fill="#ef476f"/>
      <path d="M-83.14 48 A96 96 0 0 1 -83.14 -48 L0 0 Z" fill="#a78bfa"/>
      <path d="M-83.14 -48 A96 96 0 0 1 0 -96 L0 0 Z" fill="#06b6d4"/>
    </g>
  </g>
  <circle cx="128" cy="128" r="12" fill="#fff"/>
  <polygon points="128,14 120,44 136,44" fill="#fff"/>
</svg>
